<mxfile host="app.diagrams.net" modified="2024-01-20T13:53:04.353Z" agent="Mozilla/5.0 (Macintosh; Intel Mac OS X 10_15_7) AppleWebKit/537.36 (KHTML, like Gecko) Chrome/120.0.0.0 Safari/537.36" etag="L0ZP_J-qyk4X308cQ19a" version="22.1.18" type="device">
  <diagram name="Page-1" id="Y0AjUHW4z2YZh31nzF0E">
    <mxGraphModel dx="1026" dy="579" grid="1" gridSize="10" guides="1" tooltips="1" connect="1" arrows="1" fold="1" page="1" pageScale="1" pageWidth="827" pageHeight="1169" math="0" shadow="0">
      <root>
        <mxCell id="0" />
        <mxCell id="1" parent="0" />
        <mxCell id="meNtiaOPq845TDfyLTc5-6" style="edgeStyle=orthogonalEdgeStyle;rounded=0;orthogonalLoop=1;jettySize=auto;html=1;entryX=0;entryY=0.5;entryDx=0;entryDy=0;" parent="1" source="meNtiaOPq845TDfyLTc5-1" target="meNtiaOPq845TDfyLTc5-4" edge="1">
          <mxGeometry relative="1" as="geometry" />
        </mxCell>
        <mxCell id="meNtiaOPq845TDfyLTc5-9" style="edgeStyle=orthogonalEdgeStyle;rounded=0;orthogonalLoop=1;jettySize=auto;html=1;entryX=0;entryY=0.5;entryDx=0;entryDy=0;" parent="1" source="meNtiaOPq845TDfyLTc5-1" target="meNtiaOPq845TDfyLTc5-3" edge="1">
          <mxGeometry relative="1" as="geometry">
            <Array as="points">
              <mxPoint x="140" y="420" />
            </Array>
          </mxGeometry>
        </mxCell>
        <mxCell id="meNtiaOPq845TDfyLTc5-1" value="Frontend" style="rounded=0;whiteSpace=wrap;html=1;" parent="1" vertex="1">
          <mxGeometry x="80" y="280" width="120" height="40" as="geometry" />
        </mxCell>
        <mxCell id="meNtiaOPq845TDfyLTc5-10" style="edgeStyle=orthogonalEdgeStyle;rounded=0;orthogonalLoop=1;jettySize=auto;html=1;" parent="1" source="meNtiaOPq845TDfyLTc5-2" target="meNtiaOPq845TDfyLTc5-3" edge="1">
          <mxGeometry relative="1" as="geometry" />
        </mxCell>
        <mxCell id="meNtiaOPq845TDfyLTc5-15" style="edgeStyle=orthogonalEdgeStyle;rounded=0;orthogonalLoop=1;jettySize=auto;html=1;entryX=0;entryY=0.5;entryDx=0;entryDy=0;" parent="1" source="meNtiaOPq845TDfyLTc5-2" target="meNtiaOPq845TDfyLTc5-14" edge="1">
          <mxGeometry relative="1" as="geometry" />
        </mxCell>
        <mxCell id="meNtiaOPq845TDfyLTc5-2" value="Lambda" style="rounded=0;whiteSpace=wrap;html=1;" parent="1" vertex="1">
          <mxGeometry x="480" y="280" width="120" height="40" as="geometry" />
        </mxCell>
        <mxCell id="meNtiaOPq845TDfyLTc5-3" value="S3" style="rounded=0;whiteSpace=wrap;html=1;" parent="1" vertex="1">
          <mxGeometry x="480" y="400" width="120" height="40" as="geometry" />
        </mxCell>
        <mxCell id="meNtiaOPq845TDfyLTc5-8" style="edgeStyle=orthogonalEdgeStyle;rounded=0;orthogonalLoop=1;jettySize=auto;html=1;entryX=0;entryY=0.5;entryDx=0;entryDy=0;" parent="1" source="meNtiaOPq845TDfyLTc5-4" target="meNtiaOPq845TDfyLTc5-2" edge="1">
          <mxGeometry relative="1" as="geometry" />
        </mxCell>
        <mxCell id="meNtiaOPq845TDfyLTc5-4" value="API Gateway" style="rounded=0;whiteSpace=wrap;html=1;" parent="1" vertex="1">
          <mxGeometry x="280" y="280" width="120" height="40" as="geometry" />
        </mxCell>
        <mxCell id="meNtiaOPq845TDfyLTc5-11" style="edgeStyle=orthogonalEdgeStyle;rounded=0;orthogonalLoop=1;jettySize=auto;html=1;" parent="1" source="meNtiaOPq845TDfyLTc5-5" target="meNtiaOPq845TDfyLTc5-2" edge="1">
          <mxGeometry relative="1" as="geometry" />
        </mxCell>
        <mxCell id="meNtiaOPq845TDfyLTc5-5" value="Cloudwatch Event" style="rounded=0;whiteSpace=wrap;html=1;" parent="1" vertex="1">
          <mxGeometry x="480" y="160" width="120" height="40" as="geometry" />
        </mxCell>
        <mxCell id="meNtiaOPq845TDfyLTc5-12" value="Trigger periodically" style="text;html=1;strokeColor=none;fillColor=none;align=center;verticalAlign=middle;whiteSpace=wrap;rounded=0;" parent="1" vertex="1">
          <mxGeometry x="530" y="220" width="140" height="30" as="geometry" />
        </mxCell>
        <mxCell id="meNtiaOPq845TDfyLTc5-13" value="Save audio files" style="text;html=1;strokeColor=none;fillColor=none;align=center;verticalAlign=middle;whiteSpace=wrap;rounded=0;" parent="1" vertex="1">
          <mxGeometry x="414" y="350" width="140" height="30" as="geometry" />
        </mxCell>
        <mxCell id="meNtiaOPq845TDfyLTc5-14" value="Database" style="rounded=0;whiteSpace=wrap;html=1;" parent="1" vertex="1">
          <mxGeometry x="680" y="280" width="120" height="40" as="geometry" />
        </mxCell>
        <mxCell id="meNtiaOPq845TDfyLTc5-16" value="Fetch data" style="text;html=1;strokeColor=none;fillColor=none;align=center;verticalAlign=middle;whiteSpace=wrap;rounded=0;" parent="1" vertex="1">
          <mxGeometry x="370" y="250" width="140" height="30" as="geometry" />
        </mxCell>
        <mxCell id="meNtiaOPq845TDfyLTc5-17" value="Invoke API" style="text;html=1;strokeColor=none;fillColor=none;align=center;verticalAlign=middle;whiteSpace=wrap;rounded=0;" parent="1" vertex="1">
          <mxGeometry x="170" y="250" width="140" height="30" as="geometry" />
        </mxCell>
        <mxCell id="meNtiaOPq845TDfyLTc5-18" value="Access static audio data" style="text;html=1;strokeColor=none;fillColor=none;align=center;verticalAlign=middle;whiteSpace=wrap;rounded=0;" parent="1" vertex="1">
          <mxGeometry x="210" y="420" width="140" height="30" as="geometry" />
        </mxCell>
        <mxCell id="meNtiaOPq845TDfyLTc5-19" value="Save generated data" style="text;html=1;strokeColor=none;fillColor=none;align=center;verticalAlign=middle;whiteSpace=wrap;rounded=0;" parent="1" vertex="1">
          <mxGeometry x="570" y="320" width="140" height="30" as="geometry" />
        </mxCell>
      </root>
    </mxGraphModel>
  </diagram>
</mxfile>
